<svg width="157" height="28" viewBox="0 0 157 28" fill="none" xmlns="http://www.w3.org/2000/svg">
<g clip-path="url(#clip0_12_8)">
<path d="M83.7333 24.5712C81.877 24.5712 80.32 24.1997 79.0625 23.4569C77.7751 22.7425 76.7869 21.5997 76.278 20.2282L79.0326 19.3139C79.3021 20.0569 79.8409 20.6853 80.5596 21.0568C81.3679 21.5425 82.4458 21.7712 83.7333 21.7712C85.0207 21.7712 86.0088 21.5139 86.7874 20.9426C87.446 20.4568 87.7454 19.8854 87.7454 19.0854V19.0568C87.7454 18.7711 87.6855 18.4854 87.5658 18.2568C87.4759 18.0854 87.2364 17.9139 86.937 17.7425C86.458 17.4854 85.919 17.2569 85.3801 17.1139C84.7813 16.914 83.943 16.714 82.8949 16.4853C82.0566 16.314 81.3979 16.1712 80.9188 16.0282C80.3799 15.8854 79.8409 15.7139 79.3021 15.514C78.7331 15.314 78.2242 15.0283 77.7751 14.6568L77.7151 14.5997C77.3259 14.2282 76.9965 13.8283 76.7869 13.3426C76.5176 12.7711 76.3977 12.1711 76.4277 11.5711C76.4277 9.97111 77.1164 8.62825 78.4338 7.71396C79.6314 6.88539 81.1883 6.45682 83.0447 6.45682C84.9909 6.45682 86.6376 6.88539 87.9251 7.7711C89.2425 8.65682 90.1108 9.94254 90.5599 11.5711L87.7155 12.2283C87.4759 11.2568 86.9969 10.5425 86.2484 10.0283C85.4699 9.51396 84.4219 9.25682 83.0747 9.25682C81.847 9.25682 80.859 9.48539 80.2003 9.97111C79.6314 10.3711 79.3918 10.8854 79.3918 11.6283C79.3918 11.8568 79.4218 12.0282 79.5116 12.1997C79.5716 12.3139 79.6613 12.4568 79.7512 12.5426C79.9308 12.6854 80.1704 12.7997 80.3799 12.8854L80.4397 12.9139C80.859 13.0854 81.2782 13.2282 81.6973 13.314C82.1165 13.4282 82.7453 13.5711 83.5237 13.7425C84.6914 13.9996 85.5897 14.1997 86.2783 14.4283C86.997 14.6568 87.6855 14.9425 88.3442 15.2854C89.1527 15.7139 89.7515 16.2568 90.1407 16.914V16.9426C90.5 17.5996 90.6797 18.3426 90.6498 19.114C90.6498 20.7711 89.9311 22.1997 88.5538 23.1712C87.2963 24.1139 85.6794 24.5712 83.7333 24.5712Z" fill="black"/>
<path d="M53.8222 19.6855L55.9481 21.7141L55.7086 21.9427C54.3612 23.2283 52.6845 24.0855 50.8281 24.4284C50.1994 24.5426 49.6006 24.5998 48.9718 24.5998C47.7142 24.5998 46.4867 24.3712 45.3189 23.9141C43.5524 23.2283 42.0853 22.0569 41.0374 20.5712C39.9895 19.0855 39.4205 17.314 39.4205 15.5141C39.4205 13.714 39.9895 11.9712 41.0374 10.4569C42.0853 8.9712 43.5823 7.79977 45.3189 7.11405C47.0555 6.42835 48.9718 6.25692 50.8281 6.59978C52.6845 6.94264 54.3612 7.79977 55.7086 9.08549L55.9481 9.31406L53.8222 11.3426L53.5828 11.1141C52.6546 10.2283 51.5168 9.65692 50.2293 9.39977C48.9718 9.1712 47.6544 9.28549 46.4567 9.74264C45.2591 10.2283 44.241 10.9998 43.5224 12.0283C42.8039 13.0569 42.4147 14.2569 42.4147 15.4855C42.4147 16.714 42.8039 17.914 43.5224 18.9426C44.241 19.9712 45.2591 20.7712 46.4567 21.2283C47.6544 21.7141 48.9718 21.8283 50.2293 21.5712C51.4868 21.3141 52.6546 20.7426 53.5828 19.8569L53.8222 19.6855Z" fill="black"/>
<path d="M156.999 6.74296V17.8858C156.999 18.6572 156.85 19.4286 156.61 20.143C156.311 20.9715 155.832 21.7429 155.203 22.4001C155.023 22.5715 154.843 22.7716 154.664 22.9144C153.975 23.5144 153.166 23.9715 152.298 24.2572C151.549 24.5143 150.772 24.6287 149.933 24.6287C149.124 24.6287 148.316 24.4858 147.568 24.2572C146.699 23.9715 145.89 23.5144 145.203 22.9144C145.022 22.7716 144.843 22.6001 144.664 22.4001C144.543 22.2572 144.424 22.143 144.335 22.0001C144.214 22.143 144.125 22.2572 144.004 22.4001C143.825 22.5715 143.646 22.7716 143.466 22.9144C142.747 23.5144 141.969 23.9715 141.101 24.2572C140.352 24.5143 139.573 24.6287 138.735 24.6287C137.927 24.6287 137.118 24.4858 136.37 24.2572C135.502 23.9715 134.693 23.5144 134.004 22.9144C133.825 22.7716 133.646 22.6001 133.465 22.4001C132.837 21.7429 132.358 20.9715 132.058 20.143C131.789 19.4286 131.669 18.6858 131.669 17.8858V6.6001H134.603V17.8858C134.603 18.5716 134.783 19.2572 135.142 19.8572C135.502 20.4573 136.04 20.9429 136.639 21.3144C137.896 22.0001 139.513 22.0001 140.772 21.3144C141.4 20.9715 141.909 20.4573 142.298 19.8572C142.658 19.2572 142.837 18.5716 142.837 17.8858V6.6001H145.053H145.801V17.8858C145.801 18.5716 145.981 19.2572 146.34 19.8572C146.699 20.4573 147.238 20.9429 147.838 21.3144C149.095 22.0001 150.712 22.0001 151.969 21.3144C152.598 20.9715 153.107 20.4573 153.466 19.8572C153.825 19.2572 154.005 18.5716 154.005 17.8858V6.74296H156.999Z" fill="black"/>
<path d="M107.775 13.1714V24.4572H104.84V13.1714C104.84 12.4858 104.661 11.8 104.302 11.2C103.942 10.6 103.403 10.1143 102.775 9.77146C101.517 9.08574 99.9001 9.08574 98.6426 9.77146C98.0139 10.1143 97.5048 10.6286 97.1156 11.2C96.8162 11.6858 96.6365 12.2001 96.5766 12.7715V24.4572H93.5825V1.37146H96.5766V7.68574C97.1156 7.31431 97.7144 7.0286 98.3133 6.80003C99.8104 6.28574 101.517 6.28574 103.014 6.80003C103.882 7.08575 104.691 7.54288 105.379 8.14289C105.559 8.28574 105.739 8.45717 105.918 8.65718C106.547 9.34288 107.026 10.0857 107.326 10.9143C107.625 11.6286 107.775 12.4 107.775 13.1714Z" fill="black"/>
<path d="M125.831 17.3141L125.77 17.4571C125.71 17.657 125.621 17.857 125.5 18.0857C125.142 18.8285 124.632 19.5141 124.004 20.057C123.465 20.5428 122.836 20.9141 122.147 21.1998C121.459 21.4856 120.711 21.6571 119.991 21.6856C119.123 21.7427 118.285 21.6285 117.477 21.3713C117.267 21.3142 117.058 21.2284 116.818 21.1142C116.039 20.7713 115.321 20.2856 114.752 19.6856C114.602 19.5141 114.423 19.3427 114.273 19.1428L128.855 13.1999L128.765 12.9142C128.645 12.5427 128.526 12.1999 128.376 11.8571C128.226 11.5142 128.046 11.1713 127.837 10.8285C127.596 10.457 127.387 10.1427 127.178 9.85703C126.639 9.19989 126.039 8.62846 125.321 8.11417C124.813 7.74275 124.243 7.42846 123.704 7.17131C123.346 6.99988 122.986 6.85702 122.597 6.74274C121.998 6.54275 121.369 6.42846 120.74 6.34275C119.872 6.25703 119.004 6.25703 118.166 6.37132C117.357 6.4856 116.578 6.71417 115.86 6.99988C115.111 7.2856 114.423 7.6856 113.764 8.17131C113.075 8.6856 112.477 9.25703 111.938 9.91417C111.548 10.3999 111.219 10.9427 110.95 11.457C110.77 11.8285 110.62 12.1714 110.5 12.5141C110.291 13.0856 110.171 13.6856 110.081 14.2856C109.961 15.1142 109.991 15.9427 110.111 16.7427C110.231 17.5142 110.47 18.257 110.77 18.9427C111.069 19.657 111.488 20.3142 111.968 20.9427C112.507 21.5999 113.105 22.1713 113.824 22.6856C114.333 23.0571 114.902 23.3714 115.441 23.6285C115.8 23.7999 116.189 23.9428 116.549 24.057C117.147 24.257 117.776 24.3713 118.405 24.4571C118.794 24.5142 119.183 24.5142 119.573 24.5142C120.051 24.5142 120.53 24.4856 120.98 24.3999C121.789 24.2856 122.567 24.0856 123.285 23.7713C124.033 23.457 124.722 23.0856 125.381 22.5998C126.07 22.0856 126.668 21.5141 127.207 20.8571C127.596 20.3713 127.926 19.8284 128.195 19.3142C128.376 18.9427 128.526 18.5999 128.645 18.257C128.855 17.6856 128.974 17.0856 129.064 16.4856L129.124 15.9141L125.831 17.3141ZM113.105 16.5142C113.075 16.257 113.045 16.0571 113.015 15.8285C112.956 14.9999 113.075 14.1998 113.345 13.4284C113.405 13.2285 113.495 13.0285 113.614 12.7998C113.974 12.057 114.483 11.3999 115.111 10.8285C115.65 10.3427 116.279 9.97131 116.968 9.6856C117.656 9.39989 118.405 9.22846 119.123 9.19989C119.273 9.19989 119.423 9.17132 119.543 9.17132C120.261 9.17132 120.95 9.2856 121.639 9.51417C121.848 9.57131 122.058 9.65702 122.297 9.77131C123.076 10.1142 123.764 10.5999 124.363 11.1999C124.513 11.3713 124.663 11.5713 124.813 11.7713L113.105 16.5142Z" fill="black"/>
<path d="M74.7517 15.5427C74.7517 10.4856 70.47 6.39987 65.2303 6.39987C59.9906 6.39987 55.7091 10.5142 55.7091 15.5427C55.7091 20.5998 59.9906 24.6856 65.2303 24.6856C67.7454 24.6856 70.0209 23.7427 71.7276 22.1999V24.457H74.7217V16.257C74.7517 16.0285 74.7517 15.7998 74.7517 15.5427ZM65.2603 21.7999C63.2542 21.7999 61.4578 20.9141 60.2601 19.5141C60.1702 19.4284 60.1104 19.3142 60.0206 19.2284C59.9606 19.1427 59.9008 19.057 59.8409 18.9713C59.811 18.9427 59.811 18.9141 59.781 18.9141C59.0925 17.9428 58.7031 16.7713 58.7031 15.4856C58.7031 12.057 61.6374 9.25701 65.2003 9.25701C68.7036 9.25701 71.5479 11.9141 71.6977 15.2284V15.5713C71.6977 15.7712 71.6977 15.9713 71.6677 16.1713C71.6677 16.2285 71.6677 16.257 71.6377 16.3142C71.6078 16.457 71.6078 16.6284 71.5479 16.7713C71.5479 16.8285 71.5179 16.9141 71.5179 16.9713C71.4881 17.057 71.4881 17.1142 71.4581 17.1998C71.4282 17.3142 71.3982 17.4285 71.3383 17.5427C71.3083 17.657 71.2485 17.7713 71.1886 17.9142C71.1287 18.0284 71.0989 18.1427 71.0389 18.2571C71.0389 18.2571 71.0389 18.2571 71.0389 18.2856C70.979 18.3999 70.9191 18.5142 70.8593 18.6284C70.8294 18.6856 70.7994 18.7427 70.7395 18.7999C70.7095 18.857 70.6496 18.9141 70.6198 18.9713C70.6198 18.9999 70.5898 19.0285 70.5599 19.057C69.452 20.7142 67.4759 21.7999 65.2603 21.7999Z" fill="black"/>
<path d="M1.06326 12.0589C0.382464 12.7086 0 13.5897 0 14.5084C-6.70879e-08 15.8438 1.13461 16.9263 2.53402 16.9263C3.92781 16.9263 5.05875 15.8525 5.06782 14.5245C5.07679 15.0949 5.56415 15.5547 6.16403 15.5547C6.76952 15.5547 7.26038 15.0863 7.26038 14.5085C7.26038 13.5898 6.87791 12.7086 6.19712 12.0589C5.51634 11.4093 4.59298 11.0443 3.63019 11.0443C2.66741 11.0443 1.74405 11.4093 1.06326 12.0589Z" fill="#121212"/>
<path d="M28.2788 15.9117C28.9596 15.2621 29.3421 14.381 29.3421 13.4623C29.3421 12.1269 28.2075 11.0443 26.8081 11.0443C25.4143 11.0443 24.2833 12.1182 24.2743 13.4462C24.2653 12.8758 23.778 12.416 23.178 12.416C22.5726 12.416 22.0817 12.8844 22.0817 13.4622C22.0817 14.3809 22.4641 15.2621 23.1449 15.9117C23.8258 16.5614 24.7491 16.9264 25.7119 16.9264C26.6746 16.9264 27.598 16.5614 28.2788 15.9117Z" fill="#121212"/>
<path d="M12.5928 26.9853C13.2736 27.6351 14.1969 28 15.1598 28C16.5591 28 17.6936 26.9173 17.6936 25.5818C17.6936 24.2518 16.5682 23.1727 15.1765 23.164C15.7743 23.1554 16.2561 22.6904 16.2561 22.1179C16.2561 21.5402 15.7653 21.0717 15.1598 21.0717C14.197 21.0717 13.2736 21.4367 12.5928 22.0864C11.912 22.736 11.5295 23.6172 11.5295 24.5359C11.5295 25.4546 11.912 26.3357 12.5928 26.9853Z" fill="#121212"/>
<path d="M16.6303 1.01462C15.9494 0.364967 15.026 4.01594e-08 14.0633 0C12.6639 -1.2239e-07 11.5294 1.0827 11.5294 2.41809C11.5294 3.74812 12.6548 4.82733 14.0464 4.83597C13.4487 4.84454 12.9669 5.30961 12.9669 5.88204C12.9669 6.45985 13.4577 6.92824 14.0632 6.92824C15.026 6.92824 15.9494 6.56327 16.6303 5.91362C17.311 5.26398 17.6935 4.38286 17.6935 3.46413C17.6935 2.54538 17.311 1.66426 16.6303 1.01462Z" fill="#121212"/>
<path d="M6.47215 3.4519C5.50937 3.4519 4.58601 3.81687 3.90521 4.46652L3.90547 4.46675C2.91595 5.41102 2.91595 6.94196 3.90547 7.88622C4.8921 8.82771 6.48991 8.83047 7.48014 7.89452C7.06062 8.30371 7.06349 8.95995 7.48875 9.36575C7.9169 9.77432 8.61107 9.77432 9.03922 9.36575C9.04621 9.35908 9.0531 9.35232 9.05988 9.34551C9.72765 8.69784 10.1023 7.82536 10.1023 6.91602C10.1023 5.99728 9.71987 5.11617 9.03908 4.46652C8.35828 3.81687 7.43494 3.4519 6.47215 3.4519Z" fill="#121212"/>
<path d="M21.8238 18.606C22.2491 19.0118 22.2519 19.668 21.8325 20.0773C22.8226 19.1413 24.4205 19.1441 25.4071 20.0856C26.3966 21.0297 26.3966 22.5608 25.4071 23.5049L25.4074 23.5052C24.7265 24.1549 23.8032 24.5198 22.8404 24.5198C21.8777 24.5198 20.9543 24.1549 20.2735 23.5052C19.5927 22.8556 19.2102 21.9745 19.2102 21.0558C19.2102 20.1463 19.5849 19.2739 20.2527 18.6263C20.2594 18.6194 20.2663 18.6126 20.2734 18.606C20.7015 18.1974 21.3957 18.1974 21.8238 18.606Z" fill="#121212"/>
<path d="M24.6321 3.72678C23.6425 2.78252 22.0382 2.78252 21.0487 3.72678C20.0642 4.66621 20.0592 6.18633 21.0336 7.1317C20.6043 6.73772 19.9216 6.74256 19.4986 7.14621C19.0705 7.55476 19.0704 8.2171 19.4985 8.62566L19.4984 8.6258C20.1791 9.27545 21.1025 9.64042 22.0654 9.64042C23.0281 9.64042 23.9515 9.27545 24.6322 8.6258C25.313 7.97616 25.6955 7.09504 25.6955 6.17631C25.6955 5.25757 25.3129 4.37643 24.6321 3.72678C24.6321 3.72675 24.6321 3.72681 24.6321 3.72678Z" fill="#121212"/>
<path d="M9.81286 19.3457C10.241 19.7542 10.241 20.4167 9.81286 20.8252C9.38923 21.2295 8.70518 21.2337 8.27605 20.8379C9.25221 21.7833 9.24776 23.3046 8.2627 24.2446C7.27316 25.1889 5.66881 25.1889 4.67929 24.2446C4.66844 24.2342 4.65772 24.2238 4.64711 24.2133C3.98642 23.5669 3.61597 22.6991 3.61597 21.795C3.61597 20.8762 3.99844 19.995 4.67923 19.3454C5.36003 18.6957 6.28337 18.3308 7.24617 18.3308C8.20895 18.3308 9.1323 18.6957 9.8131 19.3454L9.81286 19.3457Z" fill="#121212"/>
</g>
<defs>
<clipPath id="clip0_12_8">
<rect width="157" height="28" fill="white"/>
</clipPath>
</defs>
</svg>
