<svg width="26" height="26" viewBox="0 0 26 26" fill="none" xmlns="http://www.w3.org/2000/svg">
<g clip-path="url(#clip0_67_5)">
<path d="M13 25.5C19.9036 25.5 25.5 19.9036 25.5 13C25.5 6.09644 19.9036 0.5 13 0.5C6.09644 0.5 0.5 6.09644 0.5 13C0.5 19.9036 6.09644 25.5 13 25.5Z" stroke="white"/>
<path d="M11.5718 7.66553C11.3871 7.46027 11.071 7.44363 10.8657 7.62836C10.6605 7.81309 10.6438 8.12924 10.8285 8.33449L11.5718 7.66553ZM15.7002 13L16.0718 13.3345C16.243 13.1443 16.243 12.8557 16.0718 12.6655L15.7002 13ZM10.8285 17.6655C10.6438 17.8708 10.6605 18.1869 10.8657 18.3716C11.071 18.5564 11.3871 18.5397 11.5718 18.3345L10.8285 17.6655ZM10.8285 8.33449L15.3285 13.3345L16.0718 12.6655L11.5718 7.66553L10.8285 8.33449ZM15.3285 12.6655L10.8285 17.6655L11.5718 18.3345L16.0718 13.3345L15.3285 12.6655Z" fill="white"/>
</g>
<defs>
<clipPath id="clip0_67_5">
<rect width="26" height="26" fill="white"/>
</clipPath>
</defs>
</svg>
